<svg preserveAspectRatio="none" overflow="visible" style="display: block;" width="188.513" height="35" viewBox="0 0 188.513 35" fill="none" xmlns="http://www.w3.org/2000/svg">
<g id="id_variantes">
<g id="Vector">
<path d="M54.1447 5.26316L55.3158 1.73684H54.6316L53.8816 4.09211L53.1316 1.73684H52.4474L53.6184 5.26316H54.1447Z" fill="#FFFBF9"/>
<path d="M57.0526 1.73684H56.3684V5.26316H57.0526V1.73684Z" fill="#FFFBF9"/>
<path d="M59.1447 3.84211H59.5526L60.3421 5.26316H61.1447L60.3026 3.80263C60.3816 3.77632 60.4605 3.75 60.5395 3.71053C60.6842 3.61842 60.8026 3.5 60.8816 3.34211C60.9605 3.18421 61 3 61 2.78947C61 2.57895 60.9605 2.39474 60.8816 2.23684C60.8026 2.07895 60.6842 1.96053 60.5395 1.86842C60.3947 1.77632 60.2237 1.73684 60.0263 1.73684H58.4868V5.26316H59.1579V3.84211H59.1447ZM59.9737 2.38158C60.0395 2.38158 60.1053 2.39474 60.1579 2.43421C60.2105 2.47368 60.25 2.51316 60.2763 2.57895C60.3026 2.64474 60.3158 2.71053 60.3158 2.80263C60.3158 2.88158 60.3026 2.96053 60.2763 3.02632C60.25 3.09211 60.2105 3.13158 60.1579 3.17105C60.1053 3.21053 60.0395 3.22368 59.9737 3.22368H59.1447V2.39474H59.9737V2.38158Z" fill="#FFFBF9"/>
<path d="M62.9605 5.14474C63.1579 5.25 63.3816 5.30263 63.6447 5.30263C63.9079 5.30263 64.1316 5.25 64.3158 5.14474C64.5132 5.03947 64.6579 4.88158 64.7632 4.68421C64.8684 4.48684 64.9211 4.25 64.9211 3.98684V3.30263H63.6974V3.94737H64.2368V4C64.2368 4.13158 64.2105 4.23684 64.1711 4.32895C64.1184 4.42105 64.0526 4.5 63.9605 4.53947C63.8684 4.59211 63.7632 4.61842 63.6447 4.61842C63.5263 4.61842 63.4211 4.59211 63.329 4.55263C63.2368 4.51316 63.1711 4.44737 63.1184 4.35526C63.0658 4.27632 63.0395 4.17105 63.0395 4.06579V3.02632C63.0395 2.90789 63.0658 2.78947 63.1184 2.69737C63.1711 2.60526 63.2368 2.52632 63.329 2.47368C63.4211 2.42105 63.5263 2.39474 63.6447 2.39474C63.7237 2.39474 63.8026 2.40789 63.8816 2.43421C63.9605 2.46053 64.0263 2.5 64.079 2.55263C64.1316 2.60526 64.1711 2.67105 64.1974 2.75H64.9211C64.8816 2.53947 64.8026 2.35526 64.6842 2.19737C64.5658 2.03947 64.4211 1.92105 64.2368 1.82895C64.0526 1.73684 63.8684 1.69737 63.6579 1.69737C63.4079 1.69737 63.1842 1.75 62.9868 1.85526C62.7895 1.96053 62.6447 2.11842 62.5395 2.31579C62.4342 2.51316 62.3816 2.75 62.3816 3.01316V4.05263C62.3816 4.30263 62.4342 4.51316 62.5395 4.71053C62.6447 4.89474 62.8026 5.03947 63 5.14474H62.9605Z" fill="#FFFBF9"/>
<path d="M68.6842 5.26316V4.63158H66.9868V3.82895H68.4211V3.19737H66.9868V2.38158H68.6842V1.73684H66.329V5.26316H68.6842Z" fill="#FFFBF9"/>
<path d="M72.0526 4.31579L70.8026 1.73684H69.9868V5.26316H70.6184V2.72368L71.8684 5.26316H72.6842V1.73684H72.0526V4.31579Z" fill="#FFFBF9"/>
<path d="M76.3684 5.26316H76.8684C77.1711 5.26316 77.4211 5.21053 77.6316 5.10526C77.8421 5 78 4.85526 78.1053 4.65789C78.2105 4.47368 78.2632 4.25 78.2632 4V3C78.2632 2.73684 78.2105 2.5 78.1053 2.31579C78 2.13158 77.8421 1.98684 77.6316 1.88158C77.4211 1.78947 77.1711 1.73684 76.8816 1.73684H75.7105V5.26316H76.3816H76.3684ZM76.8816 2.38158C77.1053 2.38158 77.2632 2.43421 77.3947 2.53947C77.5132 2.64474 77.579 2.78947 77.579 2.98684V4.02632C77.579 4.22368 77.5132 4.36842 77.3947 4.47368C77.2763 4.57895 77.1053 4.63158 76.8816 4.63158H76.3684V2.38158H76.8816Z" fill="#FFFBF9"/>
<path d="M82.0263 5.26316V4.63158H80.329V3.82895H81.75V3.19737H80.329V2.38158H82.0263V1.73684H79.6579V5.26316H82.0263Z" fill="#FFFBF9"/>
<path d="M86.6447 4.07895C86.6184 4.19737 86.579 4.30263 86.5263 4.38158C86.4737 4.46053 86.4079 4.52632 86.329 4.56579C86.25 4.60526 86.1579 4.63158 86.0658 4.63158C85.9474 4.63158 85.829 4.60526 85.75 4.55263C85.6579 4.5 85.5921 4.42105 85.5526 4.32895C85.5132 4.23684 85.4869 4.11842 85.4869 3.97368V3C85.4869 2.86842 85.5132 2.75 85.5526 2.64474C85.6053 2.55263 85.6711 2.47368 85.75 2.42105C85.8421 2.36842 85.9474 2.34211 86.0658 2.34211C86.1579 2.34211 86.25 2.36842 86.329 2.40789C86.4079 2.44737 86.4737 2.51316 86.5263 2.59211C86.579 2.67105 86.6184 2.77632 86.6447 2.89474H87.329C87.2895 2.63158 87.2105 2.42105 87.0921 2.23684C86.9737 2.05263 86.829 1.92105 86.6579 1.81579C86.4868 1.72368 86.2895 1.67105 86.0658 1.67105C85.8026 1.67105 85.5658 1.72368 85.3816 1.82895C85.1974 1.93421 85.0395 2.07895 84.9474 2.27632C84.8421 2.47368 84.8026 2.71053 84.8026 2.98684V3.96053C84.8026 4.23684 84.8553 4.47368 84.9474 4.67105C85.0526 4.86842 85.1974 5.01316 85.3816 5.11842C85.579 5.22368 85.8026 5.27632 86.0658 5.27632C86.2895 5.27632 86.4868 5.22368 86.6579 5.13158C86.829 5.03947 86.9737 4.89474 87.0921 4.71053C87.2105 4.52632 87.2895 4.30263 87.329 4.05263H86.6447V4.07895Z" fill="#FFFBF9"/>
<path d="M89.1711 5.14474C89.3684 5.25 89.5921 5.30263 89.8421 5.30263C90.0921 5.30263 90.329 5.25 90.5132 5.14474C90.7105 5.03947 90.8553 4.88158 90.9605 4.68421C91.0658 4.48684 91.1184 4.26316 91.1184 4V3C91.1184 2.73684 91.0658 2.51316 90.9605 2.31579C90.8553 2.11842 90.6974 1.97368 90.5132 1.85526C90.3158 1.75 90.0921 1.69737 89.8421 1.69737C89.5921 1.69737 89.3553 1.75 89.1711 1.85526C88.9737 1.96053 88.829 2.11842 88.7237 2.31579C88.6184 2.51316 88.5658 2.73684 88.5658 3V4C88.5658 4.26316 88.6184 4.48684 88.7237 4.68421C88.829 4.88158 88.9868 5.02632 89.1711 5.14474ZM89.25 2.98684C89.25 2.86842 89.2763 2.75 89.329 2.65789C89.3816 2.56579 89.4474 2.48684 89.5395 2.44737C89.6316 2.39474 89.7369 2.36842 89.8553 2.36842C89.9737 2.36842 90.079 2.39474 90.1711 2.44737C90.2632 2.5 90.329 2.56579 90.3816 2.65789C90.4342 2.75 90.4605 2.85526 90.4605 2.98684V4.02632C90.4605 4.14474 90.4342 4.26316 90.3816 4.35526C90.329 4.44737 90.2632 4.52632 90.1711 4.56579C90.079 4.61842 89.9737 4.64474 89.8553 4.64474C89.7369 4.64474 89.6316 4.61842 89.5395 4.56579C89.4474 4.51316 89.3816 4.44737 89.329 4.35526C89.2763 4.26316 89.25 4.15789 89.25 4.02632V2.98684Z" fill="#FFFBF9"/>
<path d="M93.1974 3.89474H93.9474C94.1711 3.89474 94.3553 3.85526 94.5263 3.76316C94.6974 3.67105 94.829 3.55263 94.9211 3.38158C95.0132 3.22368 95.0658 3.02632 95.0658 2.81579C95.0658 2.60526 95.0132 2.40789 94.9211 2.25C94.829 2.09211 94.6974 1.96053 94.5263 1.86842C94.3553 1.77632 94.1711 1.73684 93.9474 1.73684H92.5395V5.26316H93.2105V3.89474H93.1974ZM93.9605 2.38158C94.0395 2.38158 94.1184 2.39474 94.1711 2.43421C94.2368 2.47368 94.2763 2.52632 94.3158 2.59211C94.3553 2.65789 94.3684 2.73684 94.3684 2.82895C94.3684 2.92105 94.3553 2.98684 94.3158 3.05263C94.2763 3.11842 94.2368 3.17105 94.1711 3.21053C94.1053 3.25 94.0395 3.26316 93.9605 3.26316H93.1974V2.38158H93.9605Z" fill="#FFFBF9"/>
<path d="M96.6842 4.69737H97.9737L98.1711 5.26316H98.8816L97.5395 1.73684H97.1184L95.7763 5.26316H96.4869L96.6842 4.69737ZM97.329 2.85526L97.75 4.05263H96.9079L97.329 2.85526Z" fill="#FFFBF9"/>
<path d="M100.461 5.14474C100.658 5.25 100.882 5.30263 101.145 5.30263C101.368 5.30263 101.566 5.25 101.737 5.15789C101.908 5.06579 102.053 4.92105 102.171 4.73684C102.289 4.55263 102.368 4.32895 102.408 4.07895H101.724C101.697 4.19737 101.658 4.30263 101.605 4.38158C101.553 4.46053 101.487 4.52632 101.408 4.56579C101.329 4.60526 101.237 4.63158 101.145 4.63158C101.026 4.63158 100.908 4.60526 100.829 4.55263C100.737 4.5 100.671 4.42105 100.632 4.32895C100.592 4.23684 100.566 4.11842 100.566 3.97368V3C100.566 2.86842 100.592 2.75 100.632 2.64474C100.684 2.55263 100.75 2.47368 100.829 2.42105C100.921 2.36842 101.026 2.34211 101.145 2.34211C101.237 2.34211 101.329 2.36842 101.408 2.40789C101.487 2.44737 101.553 2.51316 101.605 2.59211C101.658 2.67105 101.697 2.77632 101.724 2.89474H102.408C102.368 2.63158 102.289 2.42105 102.171 2.23684C102.053 2.05263 101.908 1.92105 101.737 1.81579C101.566 1.72368 101.368 1.67105 101.145 1.67105C100.882 1.67105 100.645 1.72368 100.461 1.82895C100.276 1.93421 100.118 2.07895 100.026 2.27632C99.9211 2.47368 99.8816 2.71053 99.8816 2.98684V3.96053C99.8816 4.23684 99.9342 4.47368 100.026 4.67105C100.132 4.86842 100.276 5.01316 100.461 5.11842V5.14474Z" fill="#FFFBF9"/>
<path d="M104.645 1.73684L103.303 5.26316H104.013L104.211 4.69737H105.5L105.697 5.26316H106.408L105.066 1.73684H104.645ZM104.434 4.06579L104.855 2.86842L105.276 4.06579H104.434Z" fill="#FFFBF9"/>
<path d="M109.618 5.15789C109.776 5.07895 109.908 4.97368 109.987 4.82895C110.066 4.68421 110.118 4.51316 110.118 4.31579C110.118 4.15789 110.092 4.01316 110.026 3.89474C109.974 3.77632 109.882 3.68421 109.776 3.60526C109.671 3.52632 109.539 3.48684 109.382 3.46053C109.526 3.43421 109.658 3.39474 109.75 3.31579C109.855 3.25 109.934 3.15789 109.987 3.05263C110.039 2.94737 110.066 2.82895 110.066 2.68421C110.066 2.48684 110.026 2.31579 109.934 2.17105C109.855 2.02632 109.724 1.92105 109.566 1.84211C109.408 1.76316 109.211 1.72368 108.987 1.72368H107.553V5.25H109.026C109.25 5.25 109.447 5.21053 109.618 5.13158V5.15789ZM108.961 2.38158C109.092 2.38158 109.211 2.40789 109.276 2.47368C109.355 2.53947 109.395 2.61842 109.395 2.73684C109.395 2.86842 109.355 2.96053 109.276 3.02632C109.197 3.09211 109.092 3.13158 108.961 3.13158H108.211V2.38158H108.961ZM108.211 4.63158V3.77632H108.961C109.066 3.77632 109.145 3.78947 109.224 3.82895C109.289 3.86842 109.355 3.90789 109.382 3.97368C109.421 4.03947 109.434 4.11842 109.434 4.19737C109.434 4.34211 109.395 4.43421 109.316 4.51316C109.237 4.59211 109.118 4.61842 108.961 4.61842H108.211V4.63158Z" fill="#FFFBF9"/>
<path d="M113.316 4.69737L113.513 5.26316H114.224L112.868 1.73684H112.447L111.105 5.26316H111.816L112.013 4.69737H113.316ZM112.671 2.85526L113.092 4.05263H112.25L112.671 2.85526Z" fill="#FFFBF9"/>
<path d="M116 2.72368L117.25 5.26316H118.066V1.73684H117.434V4.31579L116.171 1.73684H115.368V5.26316H116V2.72368Z" fill="#FFFBF9"/>
<path d="M120.105 4.69737H121.395L121.592 5.26316H122.303L120.961 1.73684H120.539L119.197 5.26316H119.908L120.105 4.69737ZM120.75 2.85526L121.171 4.05263H120.329L120.75 2.85526Z" fill="#FFFBF9"/>
<path d="M124.987 1.73684V5.26316H127.355V4.63158H125.658V3.82895H127.092V3.19737H125.658V2.38158H127.355V1.73684H124.987Z" fill="#FFFBF9"/>
<path d="M130.382 5.26316H131.079L130.013 3.47368L131.026 1.73684H130.329L129.671 2.86842L129 1.73684H128.303L129.316 3.47368L128.263 5.26316H128.974L129.671 4.06579L130.382 5.26316Z" fill="#FFFBF9"/>
<path d="M132.829 3.89474H133.579C133.803 3.89474 133.987 3.85526 134.158 3.76316C134.329 3.67105 134.461 3.55263 134.553 3.38158C134.645 3.22368 134.697 3.02632 134.697 2.81579C134.697 2.60526 134.645 2.40789 134.553 2.25C134.461 2.09211 134.329 1.96053 134.158 1.86842C133.987 1.77632 133.803 1.73684 133.579 1.73684H132.171V5.26316H132.829V3.89474ZM133.605 2.38158C133.684 2.38158 133.763 2.39474 133.816 2.43421C133.882 2.47368 133.921 2.52632 133.961 2.59211C134 2.65789 134.013 2.73684 134.013 2.82895C134.013 2.92105 134 2.98684 133.961 3.05263C133.921 3.11842 133.882 3.17105 133.816 3.21053C133.75 3.25 133.684 3.26316 133.605 3.26316H132.842V2.38158H133.605Z" fill="#FFFBF9"/>
<path d="M136.447 5.14474C136.645 5.25 136.868 5.30263 137.118 5.30263C137.368 5.30263 137.605 5.25 137.789 5.14474C137.987 5.03947 138.132 4.88158 138.237 4.68421C138.342 4.48684 138.395 4.26316 138.395 4V3C138.395 2.73684 138.342 2.51316 138.237 2.31579C138.132 2.11842 137.974 1.97368 137.789 1.85526C137.592 1.75 137.368 1.69737 137.118 1.69737C136.868 1.69737 136.632 1.75 136.447 1.85526C136.25 1.96053 136.105 2.11842 136 2.31579C135.895 2.51316 135.842 2.73684 135.842 3V4C135.842 4.26316 135.895 4.48684 136 4.68421C136.105 4.88158 136.263 5.02632 136.447 5.14474ZM136.526 2.98684C136.526 2.86842 136.553 2.75 136.605 2.65789C136.658 2.56579 136.724 2.48684 136.816 2.44737C136.908 2.39474 137.013 2.36842 137.132 2.36842C137.25 2.36842 137.355 2.39474 137.447 2.44737C137.539 2.5 137.605 2.56579 137.658 2.65789C137.711 2.75 137.737 2.85526 137.737 2.98684V4.02632C137.737 4.14474 137.711 4.26316 137.658 4.35526C137.605 4.44737 137.539 4.52632 137.447 4.56579C137.355 4.61842 137.25 4.64474 137.132 4.64474C137.013 4.64474 136.908 4.61842 136.816 4.56579C136.724 4.51316 136.658 4.44737 136.605 4.35526C136.553 4.26316 136.526 4.15789 136.526 4.02632V2.98684Z" fill="#FFFBF9"/>
<path d="M140.474 3.84211H140.882L141.671 5.26316H142.474L141.632 3.80263C141.711 3.77632 141.789 3.75 141.868 3.71053C142.013 3.61842 142.132 3.5 142.211 3.34211C142.289 3.18421 142.329 3 142.329 2.78947C142.329 2.57895 142.289 2.39474 142.211 2.23684C142.132 2.07895 142.013 1.96053 141.868 1.86842C141.724 1.77632 141.553 1.73684 141.355 1.73684H139.816V5.26316H140.474V3.84211ZM141.303 2.38158C141.368 2.38158 141.434 2.39474 141.487 2.43421C141.539 2.47368 141.579 2.51316 141.605 2.57895C141.632 2.64474 141.645 2.71053 141.645 2.80263C141.645 2.88158 141.632 2.96053 141.605 3.02632C141.579 3.09211 141.539 3.13158 141.487 3.17105C141.434 3.21053 141.368 3.22368 141.303 3.22368H140.474V2.39474H141.303V2.38158Z" fill="#FFFBF9"/>
<path d="M144.224 5.26316H144.882V2.38158H145.842V1.73684H143.263V2.38158H144.224V5.26316Z" fill="#FFFBF9"/>
<path d="M147.789 1.73684L146.447 5.26316H147.158L147.355 4.69737H148.645L148.842 5.26316H149.553L148.211 1.73684H147.789ZM147.579 4.06579L148 2.86842L148.421 4.06579H147.579Z" fill="#FFFBF9"/>
<path d="M151.132 5.14474C151.329 5.25 151.553 5.30263 151.816 5.30263C152.039 5.30263 152.237 5.25 152.408 5.15789C152.579 5.06579 152.724 4.92105 152.842 4.73684C152.961 4.55263 153.039 4.32895 153.079 4.07895H152.395C152.368 4.19737 152.329 4.30263 152.276 4.38158C152.224 4.46053 152.158 4.52632 152.079 4.56579C152 4.60526 151.908 4.63158 151.816 4.63158C151.697 4.63158 151.579 4.60526 151.5 4.55263C151.408 4.5 151.342 4.42105 151.303 4.32895C151.263 4.23684 151.237 4.11842 151.237 3.97368V3C151.237 2.86842 151.263 2.75 151.303 2.64474C151.355 2.55263 151.421 2.47368 151.5 2.42105C151.592 2.36842 151.697 2.34211 151.816 2.34211C151.908 2.34211 152 2.36842 152.079 2.40789C152.158 2.44737 152.224 2.51316 152.276 2.59211C152.329 2.67105 152.368 2.77632 152.395 2.89474H153.079C153.039 2.63158 152.961 2.42105 152.842 2.23684C152.724 2.05263 152.579 1.92105 152.408 1.81579C152.237 1.71053 152.039 1.67105 151.816 1.67105C151.553 1.67105 151.316 1.72368 151.132 1.82895C150.947 1.93421 150.789 2.07895 150.697 2.27632C150.592 2.47368 150.553 2.71053 150.553 2.98684V3.96053C150.553 4.23684 150.605 4.47368 150.697 4.67105C150.803 4.86842 150.947 5.01316 151.132 5.11842V5.14474Z" fill="#FFFBF9"/>
<path d="M155.026 1.73684H154.342V5.26316H155.026V1.73684Z" fill="#FFFBF9"/>
<path d="M156.987 5.14474C157.184 5.25 157.408 5.30263 157.658 5.30263C157.908 5.30263 158.145 5.25 158.329 5.14474C158.526 5.03947 158.671 4.88158 158.776 4.68421C158.882 4.48684 158.934 4.26316 158.934 4V3C158.934 2.73684 158.882 2.51316 158.776 2.31579C158.671 2.11842 158.513 1.97368 158.329 1.85526C158.132 1.75 157.908 1.69737 157.658 1.69737C157.408 1.69737 157.171 1.75 156.987 1.85526C156.789 1.96053 156.645 2.11842 156.539 2.31579C156.434 2.51316 156.382 2.73684 156.382 3V4C156.382 4.26316 156.434 4.48684 156.539 4.68421C156.645 4.88158 156.803 5.02632 156.987 5.14474ZM157.066 2.98684C157.066 2.86842 157.092 2.75 157.145 2.65789C157.197 2.56579 157.263 2.48684 157.355 2.44737C157.447 2.39474 157.553 2.36842 157.671 2.36842C157.789 2.36842 157.895 2.39474 157.987 2.44737C158.079 2.5 158.145 2.56579 158.197 2.65789C158.25 2.75 158.276 2.85526 158.276 2.98684V4.02632C158.276 4.14474 158.25 4.26316 158.197 4.35526C158.145 4.44737 158.079 4.52632 157.987 4.56579C157.895 4.61842 157.789 4.64474 157.671 4.64474C157.553 4.64474 157.447 4.61842 157.355 4.56579C157.263 4.51316 157.197 4.44737 157.145 4.35526C157.092 4.26316 157.066 4.15789 157.066 4.02632V2.98684Z" fill="#FFFBF9"/>
<path d="M160.987 2.72368L162.237 5.26316H163.053V1.73684H162.421V4.31579L161.158 1.73684H160.355V5.26316H160.987V2.72368Z" fill="#FFFBF9"/>
<path d="M164.526 1.73684V5.26316H166.882V4.63158H165.184V3.82895H166.618V3.19737H165.184V2.38158H166.882V1.73684H164.526Z" fill="#FFFBF9"/>
<path d="M169.303 5.30263C169.579 5.30263 169.829 5.26316 170.026 5.17105C170.224 5.09211 170.382 4.96053 170.487 4.80263C170.592 4.64474 170.645 4.44737 170.645 4.22368C170.645 3.97368 170.592 3.78947 170.5 3.65789C170.395 3.52632 170.276 3.42105 170.132 3.35526C169.987 3.28947 169.789 3.23684 169.579 3.19737C169.579 3.19737 169.566 3.19737 169.553 3.19737C169.553 3.19737 169.539 3.19737 169.526 3.19737C169.526 3.19737 169.526 3.19737 169.513 3.19737C169.513 3.19737 169.513 3.19737 169.5 3.19737C169.342 3.17105 169.224 3.13158 169.145 3.10526C169.053 3.07895 168.987 3.03947 168.934 2.97368C168.882 2.92105 168.842 2.82895 168.842 2.73684C168.842 2.61842 168.895 2.51316 169.013 2.44737C169.118 2.38158 169.276 2.34211 169.487 2.34211C169.618 2.34211 169.763 2.36842 169.908 2.42105C170.053 2.47368 170.197 2.53947 170.329 2.64474L170.605 2.07895C170.487 2 170.368 1.93421 170.25 1.88158C170.118 1.82895 170 1.78947 169.868 1.75C169.737 1.72368 169.605 1.71053 169.487 1.71053C169.211 1.71053 168.974 1.75 168.789 1.84211C168.592 1.92105 168.447 2.05263 168.342 2.21053C168.237 2.36842 168.184 2.56579 168.184 2.78947C168.184 3.05263 168.237 3.25 168.342 3.38158C168.447 3.52632 168.579 3.61842 168.737 3.67105C168.895 3.72368 169.092 3.77632 169.329 3.81579H169.382C169.382 3.81579 169.382 3.81579 169.395 3.81579C169.526 3.84211 169.645 3.85526 169.724 3.88158C169.816 3.90789 169.882 3.94737 169.934 4C169.987 4.05263 170.013 4.13158 170.013 4.22368C170.013 4.35526 169.947 4.46053 169.829 4.53947C169.711 4.61842 169.539 4.64474 169.329 4.64474C169.145 4.64474 168.961 4.61842 168.776 4.55263C168.592 4.48684 168.447 4.40789 168.303 4.28947L168 4.84211C168.105 4.93421 168.237 5.01316 168.382 5.07895C168.526 5.14474 168.671 5.19737 168.829 5.22368C168.987 5.26316 169.158 5.27632 169.329 5.27632L169.303 5.30263Z" fill="#FFFBF9"/>
<path d="M175.842 5.26316V4.63158H174.145V1.73684H173.487V5.26316H175.842Z" fill="#FFFBF9"/>
<path d="M177.355 5.26316H178.026V2.38158H178.987V1.73684H176.395V2.38158H177.355V5.26316Z" fill="#FFFBF9"/>
<path d="M180.632 5.26316H181.132C181.434 5.26316 181.684 5.21053 181.895 5.10526C182.105 5 182.263 4.85526 182.368 4.65789C182.474 4.47368 182.526 4.25 182.526 4V3C182.526 2.73684 182.474 2.5 182.368 2.31579C182.263 2.13158 182.105 1.98684 181.895 1.88158C181.684 1.78947 181.434 1.73684 181.145 1.73684H179.974V5.26316H180.645H180.632ZM181.145 2.38158C181.368 2.38158 181.526 2.43421 181.658 2.53947C181.776 2.64474 181.842 2.78947 181.842 2.98684V4.02632C181.842 4.22368 181.776 4.36842 181.658 4.47368C181.539 4.57895 181.368 4.63158 181.145 4.63158H180.632V2.38158H181.145Z" fill="#FFFBF9"/>
<path d="M184.421 4.69737H185.711L185.908 5.26316H186.618L185.276 1.73684H184.855L183.513 5.26316H184.224L184.421 4.69737ZM185.066 2.85526L185.487 4.05263H184.645L185.066 2.85526Z" fill="#FFFBF9"/>
<path d="M188.276 4.60526H187.605V5.26316H188.276V4.60526Z" fill="#FFFBF9"/>
<path d="M63.4605 25.8553C63.3553 26.3158 62.9605 26.6447 62.4605 26.6447C62 26.6447 61.6053 26.3289 61.4605 25.8553L57.7763 10.6711H52.4211L58.3553 34.9605H63.75C65.4342 34.9605 66.8947 33.8158 67.2895 32.1711L72.5395 10.6711H67.1842L63.4737 25.8553H63.4605Z" fill="#FFFBF9"/>
<path d="M74.6711 19H75.2105C76.3553 19 77.2763 19.9342 77.2763 21.0658V24.5658C77.2763 25.7105 76.3421 26.6316 75.2105 26.6316H74.6711V34.9605H85.0658V26.6316H84.5658C83.4211 26.6316 82.5 25.6974 82.5 24.5658V21.0658C82.5 19.9211 83.4342 19 84.5658 19H85.0658V10.6842H74.6711V19Z" fill="#FFFBF9"/>
<path d="M98.6447 10.6711H94.75C90.5658 10.6711 87.2105 14.0263 87.2105 18.1711V27.4211C87.2105 31.5921 90.5658 34.9605 94.75 34.9605H98.6447C102.789 34.9605 106.145 31.6053 106.145 27.4211V24.1447H100.895C100.592 25.5789 99.3158 26.6447 97.829 26.6447H95.5395C93.829 26.6447 92.4342 25.25 92.4342 23.5V22.1053C92.4342 20.3947 93.829 19 95.5395 19H97.829C99.3158 19 100.592 20.0526 100.895 21.4605H106.145V18.1842C106.145 14.0395 102.789 10.6842 98.6447 10.6842V10.6711Z" fill="#FFFBF9"/>
<path d="M119.711 10.6711H115.816C111.632 10.6711 108.276 14.0263 108.276 18.1711V27.4211C108.276 31.6053 111.632 34.9605 115.816 34.9605H119.711C123.855 34.9605 127.211 31.6053 127.211 27.4211V18.1711C127.211 14.0263 123.855 10.6711 119.711 10.6711ZM118.408 23.0263C117.25 26.3289 116.658 29.5789 116.118 33.0395C115.526 29.5789 115.934 25.9079 117.079 22.6053C118.237 19.3158 118.829 16.0526 119.368 12.5921C119.961 16.0526 119.539 19.7237 118.408 23.0263Z" fill="#FFFBF9"/>
<path d="M140.145 10.6711H129.355V34.9605H134.566V26.9605H140.132C144.632 26.9605 148.276 23.3158 148.276 18.8158C148.276 14.3158 144.632 10.6711 140.132 10.6711H140.145ZM141.711 20.3947H135.961C135.171 20.3947 134.566 19.75 134.566 19C134.566 18.25 135.171 17.6053 135.961 17.6053H141.711C142.461 17.6053 143.105 18.2105 143.105 19C143.105 19.7895 142.461 20.3947 141.711 20.3947Z" fill="#FFFBF9"/>
<path d="M150.421 31.3158C150.421 33.3158 152.066 34.9605 154.066 34.9605H166.25V29.75H157.039C156.25 29.75 155.645 29.1447 155.645 28.3553C155.645 27.5658 156.25 26.9605 157.039 26.9605H164.684V18.6316H157.039C156.25 18.6316 155.645 18.0263 155.645 17.2368C155.645 16.4474 156.25 15.8421 157.039 15.8421H166.25V10.6579H154.066C152.066 10.6579 150.421 12.2632 150.421 14.3026V31.3158Z" fill="#FFFBF9"/>
<path d="M182.355 20.6711L187.934 10.6711H181.974L179.763 14.6316L179.013 12.8421C178.447 11.5263 177.118 10.6579 175.697 10.6579H169.013L174.658 23.7632L168.408 34.9474H174.368L177.224 29.8026L178.513 32.7368C179.079 34.0921 180.368 34.9474 181.829 34.9474H188.513L182.368 20.6579L182.355 20.6711Z" fill="#FFFBF9"/>
<path d="M8.92105 25.7368H8.93421C9.46053 25.8026 9.93421 25.8289 10.3684 25.8289C10.4868 25.8289 10.6053 25.8289 10.7237 25.8289C11.2763 25.8026 11.6842 25.7632 12.1579 25.6579C12.5263 25.5789 12.8947 25.4605 13.25 25.3158L13.4079 25.2368C13.4737 25.1974 13.5526 25.1711 13.6184 25.1316C13.7632 25.0526 13.8816 24.9868 14 24.9079C14.1184 24.8289 14.2368 24.75 14.3553 24.6579L14.5132 24.5263C14.5132 24.5263 14.6316 24.4211 14.6974 24.3684C14.9079 24.1842 15.1053 23.9868 15.2895 23.8158L15.4737 23.6447C16.1184 23.0132 16.8158 22.4079 17.5658 21.8421L17.9474 21.5526L17.4605 21.5921C17.1842 21.6053 16.9211 21.6053 16.6579 21.5921C15.6842 21.5 14.7237 21.1316 13.8026 20.7763L13.7105 20.7368C12.7632 20.3684 11.9605 20.0921 11.1053 19.9737C9.86842 19.8158 8.88158 19.9737 7.89474 20.1579C6.72368 20.3816 6.21053 20.6447 5.80263 20.8421C5.59211 20.9474 5.4079 21.0395 5.18421 21.1053C5.10526 21.1316 5.01316 21.1447 4.93421 21.1711C4.93421 21.1711 4.71053 21.2105 4.48684 21.2237C3 21.2763 1.25 20.4605 1.23684 20.4605C0.868421 20.2895 0.5 20.0789 0.144737 19.8553L0 19.7632V19.9342C0.0263158 20.2105 0.0526316 20.5921 0.0657895 20.9737C0.0789474 21.3553 0.105263 21.7368 0.118421 22.0132V22.0658L0.171053 22.0921C2.02632 23.0658 3.96053 23.9474 5.92105 24.6974C6.9079 25.0789 7.92105 25.4342 8.93421 25.7632L8.92105 25.7368Z" fill="#FFFBF9"/>
<path d="M47.1447 21.4605C47.1447 21.4605 47.0789 21.4605 47.0526 21.4737C46.0395 21.5789 45.25 21.8158 44.6316 22.2105C44.5921 22.2368 44.5395 22.2632 44.5 22.3026L44.3289 22.4342C44.25 22.5 44.1579 22.5789 44.079 22.6711C43.8947 22.8684 43.7763 23.0526 43.6711 23.2237C43.5526 23.4211 43.4868 23.5526 43.3684 23.75L43.2763 23.9211C43.0658 24.3026 42.8553 24.6842 42.6053 25.0526C42.25 25.5658 41.8553 26.0395 41.4211 26.4737L41.0263 26.8684L41.5526 26.7237C43.25 26.2632 44.9737 25.6974 46.6842 25.0526L46.75 25.0263V24.9474C46.8816 24.5 46.9868 24.0526 47.0658 23.6053C47.1842 22.9211 47.2368 22.3158 47.2763 21.9079C47.2763 21.7895 47.3026 21.6974 47.3026 21.6184V21.4211L47.1184 21.4737L47.1447 21.4605Z" fill="#FFFBF9"/>
<path d="M14.3553 34.6842C13.9474 33.7237 13.5921 32.7237 13.2895 31.6447V31.6053C13.2105 31.3553 13.1053 30.9737 12.9737 30.6316L12.8947 30.4342C12.8947 30.4342 12.8289 30.3026 12.8026 30.2237C12.7368 30.0921 12.6711 29.9737 12.5921 29.8421C12.5132 29.6974 12.4211 29.5658 12.3421 29.4474C12.2895 29.3816 12.2368 29.3026 12.1842 29.2368L12.0789 29.1184C11.8421 28.8289 11.5658 28.5395 11.2632 28.2632C10.6316 27.6974 9.86842 27.1974 8.88158 26.7237C7.46053 26.2632 6.05263 25.75 4.69737 25.1974C3.40789 24.6711 2.07895 24.0658 0.539474 23.3026L0.276316 23.1711L0.328947 23.4605C0.960526 26.5789 2.69737 29.4605 5.25 31.5658C7.78947 33.6711 10.9868 34.8684 14.25 34.9605H14.4868L14.3947 34.75C14.3947 34.7237 14.3684 34.6974 14.3684 34.6842H14.3553Z" fill="#FFFBF9"/>
<path d="M26.8158 28.6974C28.1184 28.6842 29.5 28.6447 30.9342 28.5526H30.9474C32.0263 28.2368 32.9342 27.8158 33.7105 27.25L33.8816 27.1184L33.9211 27.0921C33.9211 27.0921 34.0395 27 34.0921 26.9474C34.2105 26.8421 34.329 26.7368 34.4474 26.6184C34.7237 26.3421 34.9605 26.0789 35.1447 25.7895C35.4737 25.3158 35.7368 24.7763 35.9868 24.2632C36.1316 23.9737 36.25 23.7105 36.3947 23.4474C36.5526 23.1447 36.75 22.8289 36.9474 22.5263L37.1842 22.1842L36.7895 22.3158C36.4605 22.4211 36.1579 22.4868 35.8816 22.5132C35.0263 22.6053 34.2632 22.3816 33.5132 22.1711H33.4868C32.8421 21.9737 32.1711 21.7763 31.4605 21.8026C30.9605 21.8026 30.4868 21.9211 30.0921 22.0263C29.3816 22.3421 28.7763 22.6842 28.2105 23.0658C28.0658 23.1711 27.9211 23.2763 27.8026 23.3684C27.6447 23.4868 27.5132 23.6053 27.3816 23.7237C27.1447 23.9342 26.9211 24.1579 26.7105 24.3947C26.3553 24.7895 26.0526 25.2368 25.75 25.6579L25.7237 25.6974C25.5132 26 25.3026 26.3158 25.0658 26.6053C24.5395 27.2632 23.8553 27.8158 23.0526 28.25L22.6053 28.4868L23.1184 28.5263C24.4868 28.6316 25.6974 28.6711 26.8421 28.6842L26.8158 28.6974Z" fill="#FFFBF9"/>
<path d="M24.7105 25.5263L24.829 25.3553C25.2763 24.7105 25.7368 24.0395 26.3026 23.4605C26.5 23.2632 26.7105 23.0526 26.9605 22.8553L27.2237 22.6316L26.8816 22.6053C26.8816 22.6053 26.8421 22.6053 26.8158 22.6053C26 22.5 25.2368 22.1447 24.5132 21.8026C23.7237 21.4342 22.9211 21.0526 21.9868 20.9605C21.5263 20.9211 21.0395 20.9605 20.4342 21.0526H20.3947C19.5395 21.5789 18.7895 22.0658 18.1184 22.5921C17.2895 23.2368 16.5263 23.9474 15.8289 24.6316C15.4211 25.0263 14.8684 25.5263 14.2105 25.8947C13.7105 26.1711 13.1447 26.3947 12.5263 26.5395H12.4605V26.8026H12.5263C13.5132 27.0789 14.3947 27.2895 15.2237 27.4737C16.6974 27.7895 18.25 28.0395 19.9868 28.2632H20C20.1447 28.25 20.25 28.2237 20.4474 28.1974C20.6974 28.1579 20.9342 28.1053 21.1711 28.0395C21.6974 27.8947 22.1974 27.6974 22.6579 27.4342C23.4474 27 24.1447 26.3553 24.6974 25.5526L24.7105 25.5263Z" fill="#FFFBF9"/>
<path d="M38.0263 27.5658H38.0526C38.1447 27.5132 38.2368 27.4868 38.3289 27.4474L38.5526 27.3553C38.75 27.2632 38.9474 27.1579 39.1447 27.0526C39.6184 26.7895 40.0526 26.4737 40.4474 26.1316C41.1053 25.5395 41.6974 24.8158 42.1842 24C42.3026 23.8026 42.4079 23.5921 42.5132 23.4079C42.6974 23.0526 42.8947 22.6842 43.1447 22.3684C43.2237 22.2632 43.3026 22.1711 43.4079 22.0658L43.6053 21.8553L43.3158 21.8158C43.1579 21.7895 43 21.7632 42.8158 21.7237C42.6184 21.6711 42.4079 21.6184 42.2105 21.5526C41.6842 21.3947 41.1447 21.2368 40.5263 21.2237C40.1447 21.1974 39.7237 21.2763 39.1316 21.4605L39.079 21.5C38.9605 21.6184 38.829 21.7368 38.7105 21.8684C37.9868 22.6316 37.3947 23.5132 36.9342 24.5132C36.5263 25.3684 36.1316 26.1579 35.5263 26.8816C35.1974 27.2632 34.8158 27.6184 34.3947 27.9474L33.9474 28.2895L34.5 28.2105C35.7105 28.0395 36.9079 27.8421 38.0526 27.6053L38.0263 27.5658Z" fill="#FFFBF9"/>
<path d="M42.1842 29.8684L42.1053 29.7895C41.9868 29.6711 41.8421 29.5395 41.7105 29.4079C41.579 29.2895 41.4474 29.1974 41.25 29.0789C41.1579 29.0263 41.0658 28.9737 40.9868 28.9342C40.9474 28.9079 40.8947 28.8947 40.8421 28.8684L40.7763 28.8421C40.7763 28.8421 40.7632 28.8421 40.75 28.8289L40.6053 28.7632C40.4342 28.7105 40.2105 28.6447 40.0526 28.6053C39.5263 28.4737 38.9605 28.4342 38.2368 28.4737C36.5395 28.8289 34.7763 29.1053 32.9868 29.2895L32.579 29.3289L32.9211 29.5526C33.4079 29.8684 33.8421 30.1974 34.2237 30.5526C34.7895 31.0789 35.2632 31.6711 35.6184 32.2895C35.9868 32.9211 36.1974 33.6184 36.3816 34.2763C36.3816 34.3026 36.3947 34.3421 36.4079 34.3684L36.4474 34.5L36.5789 34.4737C39.1053 33.8553 41.3816 32.6447 43.1579 30.9605L43.2763 30.8421L43.1447 30.7368C42.75 30.4211 42.4342 30.1316 42.1447 29.8421L42.1842 29.8684Z" fill="#FFFBF9"/>
<path d="M41.2763 27.7632L40.8684 27.8684L41.25 28.0395C41.4474 28.1316 41.6184 28.2105 41.7895 28.3289C42.1974 28.5921 42.5395 28.9079 42.8553 29.2237C43.1447 29.5132 43.4605 29.7895 43.8421 30.1053L43.9474 30.1974L44.0395 30.0921C44.9868 29 45.7368 27.7763 46.2763 26.4605L46.3947 26.1579L46.0921 26.2632C44.4737 26.8421 42.8553 27.3553 41.2632 27.7632H41.2763Z" fill="#FFFBF9"/>
<path d="M24.3684 33.9342L24.3158 33.7632C24.1447 33.2105 24.0658 32.9342 23.8816 32.5658C23.8158 32.4342 23.75 32.3026 23.6711 32.1842C23.5263 31.9474 23.3421 31.6974 23.1447 31.4605C22.8026 31.0526 22.4737 30.7895 22.3026 30.6579C21.6579 30.1316 20.8026 29.6316 19.7368 29.1711H19.7105C17.6842 28.9079 15.6842 28.5395 13.7632 28.0921C13.3816 28 12.9737 27.8947 12.4868 27.7763L11.9868 27.6447L12.3421 28.0132C12.7895 28.4737 13.1711 28.9868 13.4605 29.5132C13.8289 30.1711 14.0395 30.8684 14.2237 31.5395C14.5263 32.6447 14.9474 33.7632 15.4737 34.8816L15.5132 34.9605H24.6711L24.6053 34.7763C24.4868 34.4079 24.4079 34.1184 24.3421 33.9342H24.3684Z" fill="#FFFBF9"/>
<path d="M35.4605 34.4079C35.3553 34.0263 35.25 33.7105 35.1447 33.4079L35.0658 33.2237C35.0658 33.2237 35 33.0921 34.9737 33.0263C34.9079 32.8947 34.8421 32.7763 34.7632 32.6579C34.6711 32.5132 34.5921 32.3816 34.5 32.25L34.2368 31.9079C33.9868 31.6053 33.6974 31.3158 33.3816 31.0526C32.7368 30.4868 31.9342 29.9868 30.9079 29.5H30.8421C29 29.6316 27.1579 29.6711 25.3816 29.6184C24.5658 29.5921 23.7105 29.5526 22.75 29.4737L22.2368 29.4342L22.6447 29.7368C22.8421 29.8816 23.0132 30.0263 23.1842 30.1711C23.7632 30.6711 24.2237 31.2368 24.5526 31.8553C24.8947 32.4737 25.1053 33.1579 25.3026 33.8553C25.3816 34.1579 25.4868 34.4605 25.6316 34.8947L25.6711 35H32.6447C33.5658 35 34.4868 34.9211 35.3947 34.7763L35.5658 34.75L35.5132 34.5921C35.5132 34.5921 35.4868 34.5 35.4737 34.4474L35.4605 34.4079Z" fill="#FFFBF9"/>
<path d="M4.19737 19.8684C6.34211 19.8289 8.18421 18.5921 10.75 18.7105C11.5 18.75 12.1711 18.8947 12.2105 18.8947C13.3947 19.1579 13.6711 19.4868 14.6447 19.8026C15 19.9211 16.5395 20.4211 18.2895 20.0789C19 19.9342 19.4079 19.7632 20.3947 19.6579C20.7895 19.6184 21.2632 19.6184 21.8816 19.6974C23.9211 19.9605 24.2237 20.8816 26.2632 21.2763C27.1447 21.4474 27.9211 21.5921 28.8158 21.3289C29.3553 21.1711 29.7763 20.9342 30.6184 20.7763C30.75 20.75 31.2368 20.6842 31.8684 20.7237C33.4737 20.8158 33.75 21.4474 35.25 21.5658C35.6579 21.6053 36.3421 21.6447 37.1447 21.3947C37.9079 21.1447 38.0395 20.8684 38.9474 20.5658C39.2105 20.4737 39.8684 20.2632 40.6842 20.2632C41.6447 20.2632 41.7368 20.4605 42.8947 20.75C43.1711 20.8158 44.5 21.1184 45.829 20.6316C46.3816 20.4342 47.3026 19.9737 47.3026 19.9737L47.3421 14.6842C47.3421 6.53947 40.8026 0 32.6579 0H14.6316C6.53947 0 0 6.53947 0 14.6842V18.4474C1.76316 19.6711 3.19737 19.8947 4.19737 19.8816V19.8684ZM2.57895 15.0132C2.36842 14.9474 2.09211 14.8684 1.85526 14.6316C1.01316 13.7895 1.67105 11.9211 2.19737 10.5132C2.90789 8.60526 3.9079 7.31579 4.23684 6.89474C4.85526 6.11842 7.09211 3.38158 11 2.23684C11.8684 1.98684 12.6053 1.78947 13.8947 1.73684C18.7763 1.53947 20.9605 1.73684 25.8553 1.77632C31.3421 1.82895 32.4474 1.67105 35.3421 2.15789C37.8553 2.57895 39.3553 3.89474 40.0526 4.39474C42.6053 6.21053 43.8684 8.36842 44.1579 8.88158C44.6974 9.82895 46.6974 13.2763 45.4868 14.7763C45.25 15.0658 44.9868 15.1711 44.9342 15.1974C43.9474 15.5789 42.75 14.5395 42.2763 14.1842C37.5132 10.7237 35.3421 8.53947 32.9737 8.55263C31.5921 8.55263 30.1447 9.46053 27.25 11.2105C26.4079 11.7237 25.7237 12.1842 25.2763 12.5C26.7237 13.9079 28.1711 15.4605 27.8684 15.8684C27.8158 15.9342 27.7368 15.9474 27.6579 15.9737C26.9211 16.1053 24.6711 14.0526 22.8947 12.5526C19.1447 9.39474 17.5263 7.82895 15.6184 7.82895C12.7368 7.82895 10.3684 11.0921 5.68421 14.1974C5.18421 14.5263 3.88158 15.3684 2.60526 15L2.57895 15.0132Z" fill="#FFFBF9"/>
<path d="M23.3158 8.07895C24.3553 8.07895 25.1842 7.23684 25.1842 6.21053C25.1842 5.18421 24.3421 4.34211 23.3158 4.34211C22.2895 4.34211 21.4474 5.18421 21.4474 6.21053C21.4474 7.23684 22.2895 8.07895 23.3158 8.07895Z" fill="#FFFBF9"/>
</g>
</g>
</svg>
